<?xml version="1.0" encoding="utf-8"?>
<svg xmlns="http://www.w3.org/2000/svg" viewBox="0 0 800 80">
	<polygon points="80.341,5 60.686,59 43.659,59 63.314,5" />
	<polygon points="54.341,5 34.686,59 17.659,59 37.314,5" />
	<path d="M145.083,58.84L122.522,26.6V58.84h-13.761V5.479h14.16L144.522,36.2V5.479h13.841V58.84H145.083z" />
	<path d="M184.777,19.239c11.44,0,19.761,8.4,19.761,21.521v2.64h-27.521c0.72,3.601,4.08,6.881,9.84,6.881
		c3.44,0,7.28-1.36,9.44-3.28l5.2,7.68c-3.84,3.44-10.24,5.12-16.16,5.12c-11.921,0-21.121-7.76-21.121-20.32
		C164.217,28.28,172.697,19.239,184.777,19.239z M176.857,35.4h15.92c-0.319-2.72-2.319-6.64-8-6.64
		C179.418,28.76,177.338,32.6,176.857,35.4z" />
	<path d="M212.136,48.44V30.92h-6.399V20.199h6.399V9.639h12.24v10.56h7.841V30.92h-7.841V45c0,2.24,1.28,3.92,3.44,3.92
		c1.36,0,2.72-0.48,3.12-0.96l2.4,9.28c-1.521,1.439-4.561,2.56-9.12,2.56C216.376,59.8,212.136,55.88,212.136,48.44z" />
	<path d="M272.983,58.84l-7.279-23.92l-7.2,23.92h-13.28l-11.44-38.641h12.64l6.24,23.681l7.601-23.681h10.96l7.601,23.681
		l6.16-23.681h12.72l-11.44,38.641H272.983z" />
	<path d="M297.485,39.48c0-10.88,7.921-20.241,21.041-20.241c13.28,0,21.12,9.36,21.12,20.241c0,10.881-7.84,20.32-21.12,20.32
		C305.406,59.8,297.485,50.361,297.485,39.48z M327.007,39.48c0-5.12-3.04-9.36-8.48-9.36c-5.36,0-8.32,4.24-8.32,9.36
		c0,5.2,2.96,9.44,8.32,9.44C323.967,48.92,327.007,44.68,327.007,39.48z" />
	<path d="M344.852,58.84V20.199h12.32v4.88c2.561-3.12,7.44-5.84,12.081-5.84v11.92c-0.721-0.24-1.761-0.4-3.04-0.4
		c-3.2,0-7.44,1.36-9.041,3.6v24.48H344.852z" />
	<path d="M397.437,58.84l-8.48-13.68l-3.68,4.399v9.28h-12.32V5.479h12.32V35.64l11.76-15.44h14.881L397.678,37.8l14.96,21.041
		H397.437z" />
	<path d="M474.317,58.84l-2.721-8.08h-22.16l-2.721,8.08h-14.96l20.08-53.361h17.281l20.16,53.361H474.317z M460.476,17.479
		l-7.44,21.68h14.961L460.476,17.479z" />
	<path d="M494.899,45.4c2.88,2.561,9.04,5.12,13.601,5.12c3.68,0,5.2-1.199,5.2-2.88c0-2-2.641-2.72-6.641-3.36
		c-6.56-1.119-15.84-2.48-15.84-12.32c0-6.8,5.84-12.72,16.56-12.72c6.48,0,12.001,2.08,16.161,5.12l-4.721,8.16
		c-2.319-2.24-6.72-4.24-11.36-4.24c-2.88,0-4.88,0.96-4.88,2.64c0,1.76,2.08,2.4,6.16,3.12c6.561,1.12,16.32,2.72,16.32,12.961
		c0,7.359-6.479,12.8-17.601,12.8c-6.88,0-14-2.32-18.08-5.92L494.899,45.4z" />
	<path d="M532.291,45.4c2.88,2.561,9.04,5.12,13.6,5.12c3.681,0,5.2-1.199,5.2-2.88c0-2-2.64-2.72-6.64-3.36
		c-6.561-1.119-15.841-2.48-15.841-12.32c0-6.8,5.84-12.72,16.561-12.72c6.48,0,12,2.08,16.16,5.12l-4.72,8.16
		c-2.32-2.24-6.721-4.24-11.36-4.24c-2.88,0-4.88,0.96-4.88,2.64c0,1.76,2.08,2.4,6.16,3.12c6.56,1.12,16.32,2.72,16.32,12.961
		c0,7.359-6.48,12.8-17.601,12.8c-6.88,0-14-2.32-18.08-5.92L532.291,45.4z" />
	<path d="M585.914,19.239c11.44,0,19.761,8.4,19.761,21.521v2.64h-27.521c0.72,3.601,4.08,6.881,9.84,6.881
		c3.44,0,7.28-1.36,9.44-3.28l5.2,7.68c-3.84,3.44-10.24,5.12-16.16,5.12c-11.921,0-21.121-7.76-21.121-20.32
		C565.353,28.28,573.834,19.239,585.914,19.239z M577.994,35.4h15.92c-0.319-2.72-2.319-6.64-8-6.64
		C580.555,28.76,578.474,32.6,577.994,35.4z" />
	<path d="M659.418,58.84V35.32c0-2.96-1.439-5.2-5.12-5.2c-3.359,0-5.76,2.16-6.96,3.76v24.96h-12.32V35.32
		c0-2.96-1.36-5.2-5.12-5.2c-3.28,0-5.6,2.16-6.88,3.76v24.96h-12.32V20.199h12.32v4.72c1.68-2.24,6.64-5.68,12.72-5.68
		c5.521,0,9.36,2.32,10.961,6.88c2.24-3.36,7.28-6.88,13.36-6.88c7.12,0,11.6,3.68,11.6,11.601v28H659.418z" />
	<path d="M679.353,58.84V5.479h12.32V24.76c3.04-3.84,7.2-5.521,11.439-5.521c9.601,0,17.041,7.6,17.041,20.241
		c0,13.12-7.521,20.32-17.041,20.32c-4.319,0-8.239-1.76-11.439-5.44v4.48H679.353z M691.674,45.48c1.52,2.08,4.72,3.44,7.359,3.44
		c4.881,0,8.561-3.601,8.561-9.44c0-5.76-3.68-9.36-8.561-9.36c-2.64,0-5.84,1.44-7.359,3.52V45.48z" />
	<path d="M725.768,58.84V5.479h12.32V58.84H725.768z" />
	<path d="M746.96,62.92c0.88,0.48,2.08,0.72,3.04,0.72c2.8,0,4.56-0.56,5.2-2.16l0.88-2.08l-15.36-39.201h12.96L762.4,44.68
		l8.8-24.481h13.04L766.8,64.361c-3.12,8.16-8.96,10-16.32,10.16c-1.12,0-4-0.24-5.28-0.641L746.96,62.92z" />
</svg>